<mxfile host="Electron" modified="2023-09-25T07:07:50.597Z" agent="Mozilla/5.0 (Windows NT 10.0; Win64; x64) AppleWebKit/537.36 (KHTML, like Gecko) draw.io/21.6.8 Chrome/114.0.5735.289 Electron/25.5.0 Safari/537.36" etag="m4DZYLPE9HVhIliWkEqm" version="21.6.8" type="device">
  <diagram name="Page-1" id="EM10xiczA3IdKERSy8Ls">
    <mxGraphModel dx="1036" dy="623" grid="1" gridSize="10" guides="1" tooltips="1" connect="1" arrows="1" fold="1" page="1" pageScale="1" pageWidth="850" pageHeight="1100" math="0" shadow="0">
      <root>
        <mxCell id="0" />
        <mxCell id="1" parent="0" />
        <mxCell id="RsxdTm03hy1mxymEE_wY-1" value="" style="shape=umlLifeline;perimeter=lifelinePerimeter;whiteSpace=wrap;html=1;container=1;dropTarget=0;collapsible=0;recursiveResize=0;outlineConnect=0;portConstraint=eastwest;newEdgeStyle={&quot;edgeStyle&quot;:&quot;elbowEdgeStyle&quot;,&quot;elbow&quot;:&quot;vertical&quot;,&quot;curved&quot;:0,&quot;rounded&quot;:0};participant=umlActor;" parent="1" vertex="1">
          <mxGeometry x="110" y="110" width="20" height="650" as="geometry" />
        </mxCell>
        <mxCell id="RsxdTm03hy1mxymEE_wY-2" style="edgeStyle=elbowEdgeStyle;rounded=0;orthogonalLoop=1;jettySize=auto;html=1;elbow=vertical;curved=0;" parent="RsxdTm03hy1mxymEE_wY-1" edge="1">
          <mxGeometry relative="1" as="geometry">
            <mxPoint x="240" y="135" as="targetPoint" />
            <mxPoint x="15" y="135" as="sourcePoint" />
          </mxGeometry>
        </mxCell>
        <mxCell id="RsxdTm03hy1mxymEE_wY-3" value="" style="html=1;points=[];perimeter=orthogonalPerimeter;outlineConnect=0;targetShapes=umlLifeline;portConstraint=eastwest;newEdgeStyle={&quot;edgeStyle&quot;:&quot;elbowEdgeStyle&quot;,&quot;elbow&quot;:&quot;vertical&quot;,&quot;curved&quot;:0,&quot;rounded&quot;:0};" parent="RsxdTm03hy1mxymEE_wY-1" vertex="1">
          <mxGeometry x="5" y="70" width="10" height="220" as="geometry" />
        </mxCell>
        <mxCell id="RsxdTm03hy1mxymEE_wY-4" value="" style="html=1;points=[];perimeter=orthogonalPerimeter;outlineConnect=0;targetShapes=umlLifeline;portConstraint=eastwest;newEdgeStyle={&quot;edgeStyle&quot;:&quot;elbowEdgeStyle&quot;,&quot;elbow&quot;:&quot;vertical&quot;,&quot;curved&quot;:0,&quot;rounded&quot;:0};" parent="RsxdTm03hy1mxymEE_wY-1" vertex="1">
          <mxGeometry x="5" y="305" width="10" height="120" as="geometry" />
        </mxCell>
        <mxCell id="RsxdTm03hy1mxymEE_wY-5" value="" style="html=1;points=[];perimeter=orthogonalPerimeter;outlineConnect=0;targetShapes=umlLifeline;portConstraint=eastwest;newEdgeStyle={&quot;edgeStyle&quot;:&quot;elbowEdgeStyle&quot;,&quot;elbow&quot;:&quot;vertical&quot;,&quot;curved&quot;:0,&quot;rounded&quot;:0};" parent="RsxdTm03hy1mxymEE_wY-1" vertex="1">
          <mxGeometry x="5" y="567" width="10" height="80" as="geometry" />
        </mxCell>
        <mxCell id="RsxdTm03hy1mxymEE_wY-6" value="Admin" style="text;html=1;align=center;verticalAlign=middle;resizable=0;points=[];autosize=1;strokeColor=none;fillColor=none;" parent="1" vertex="1">
          <mxGeometry x="90" y="140" width="60" height="30" as="geometry" />
        </mxCell>
        <mxCell id="RsxdTm03hy1mxymEE_wY-7" value="&lt;font style=&quot;font-size: 13px;&quot;&gt;BossShop Admin Dashboard&lt;br&gt;:Add Category&lt;/font&gt;" style="html=1;whiteSpace=wrap;" parent="1" vertex="1">
          <mxGeometry x="255" y="110" width="200" height="40" as="geometry" />
        </mxCell>
        <mxCell id="RsxdTm03hy1mxymEE_wY-8" value="Database" style="html=1;whiteSpace=wrap;" parent="1" vertex="1">
          <mxGeometry x="530" y="110" width="110" height="40" as="geometry" />
        </mxCell>
        <mxCell id="RsxdTm03hy1mxymEE_wY-9" value="" style="endArrow=none;dashed=1;html=1;strokeWidth=1;rounded=0;entryX=0.5;entryY=1;entryDx=0;entryDy=0;" parent="1" source="RsxdTm03hy1mxymEE_wY-15" target="RsxdTm03hy1mxymEE_wY-7" edge="1">
          <mxGeometry width="50" height="50" relative="1" as="geometry">
            <mxPoint x="360" y="540" as="sourcePoint" />
            <mxPoint x="370" y="230" as="targetPoint" />
          </mxGeometry>
        </mxCell>
        <mxCell id="RsxdTm03hy1mxymEE_wY-10" value="" style="endArrow=classic;html=1;rounded=0;" parent="1" edge="1">
          <mxGeometry width="50" height="50" relative="1" as="geometry">
            <mxPoint x="125" y="196" as="sourcePoint" />
            <mxPoint x="350" y="196" as="targetPoint" />
          </mxGeometry>
        </mxCell>
        <mxCell id="RsxdTm03hy1mxymEE_wY-11" value="Request login form()" style="text;html=1;align=center;verticalAlign=middle;resizable=0;points=[];autosize=1;strokeColor=none;fillColor=none;" parent="1" vertex="1">
          <mxGeometry x="155" y="168" width="130" height="30" as="geometry" />
        </mxCell>
        <mxCell id="RsxdTm03hy1mxymEE_wY-12" value="" style="endArrow=none;dashed=1;html=1;strokeWidth=1;rounded=0;entryX=0.5;entryY=1;entryDx=0;entryDy=0;" parent="1" source="RsxdTm03hy1mxymEE_wY-36" target="RsxdTm03hy1mxymEE_wY-15" edge="1">
          <mxGeometry width="50" height="50" relative="1" as="geometry">
            <mxPoint x="355" y="700" as="sourcePoint" />
            <mxPoint x="355" y="150" as="targetPoint" />
          </mxGeometry>
        </mxCell>
        <mxCell id="RsxdTm03hy1mxymEE_wY-13" style="edgeStyle=elbowEdgeStyle;rounded=0;orthogonalLoop=1;jettySize=auto;html=1;elbow=vertical;curved=0;" parent="1" edge="1">
          <mxGeometry relative="1" as="geometry">
            <mxPoint x="350" y="226" as="sourcePoint" />
            <mxPoint x="119.5" y="226" as="targetPoint" />
          </mxGeometry>
        </mxCell>
        <mxCell id="RsxdTm03hy1mxymEE_wY-14" style="edgeStyle=elbowEdgeStyle;rounded=0;orthogonalLoop=1;jettySize=auto;html=1;elbow=vertical;curved=0;" parent="1" edge="1">
          <mxGeometry relative="1" as="geometry">
            <mxPoint x="360" y="224" as="sourcePoint" />
            <mxPoint x="580" y="224" as="targetPoint" />
          </mxGeometry>
        </mxCell>
        <mxCell id="RsxdTm03hy1mxymEE_wY-15" value="" style="html=1;points=[];perimeter=orthogonalPerimeter;outlineConnect=0;targetShapes=umlLifeline;portConstraint=eastwest;newEdgeStyle={&quot;edgeStyle&quot;:&quot;elbowEdgeStyle&quot;,&quot;elbow&quot;:&quot;vertical&quot;,&quot;curved&quot;:0,&quot;rounded&quot;:0};" parent="1" vertex="1">
          <mxGeometry x="350" y="180" width="10" height="90" as="geometry" />
        </mxCell>
        <mxCell id="RsxdTm03hy1mxymEE_wY-16" value="display login form()" style="text;html=1;align=center;verticalAlign=middle;resizable=0;points=[];autosize=1;strokeColor=none;fillColor=none;" parent="1" vertex="1">
          <mxGeometry x="160" y="198" width="120" height="30" as="geometry" />
        </mxCell>
        <mxCell id="RsxdTm03hy1mxymEE_wY-17" value="input information()" style="text;html=1;align=center;verticalAlign=middle;resizable=0;points=[];autosize=1;strokeColor=none;fillColor=none;" parent="1" vertex="1">
          <mxGeometry x="150" y="223" width="120" height="30" as="geometry" />
        </mxCell>
        <mxCell id="RsxdTm03hy1mxymEE_wY-18" value="" style="endArrow=none;dashed=1;html=1;strokeWidth=1;rounded=0;entryX=0.5;entryY=1;entryDx=0;entryDy=0;" parent="1" source="RsxdTm03hy1mxymEE_wY-21" edge="1">
          <mxGeometry width="50" height="50" relative="1" as="geometry">
            <mxPoint x="590" y="640" as="sourcePoint" />
            <mxPoint x="582.5" y="149" as="targetPoint" />
          </mxGeometry>
        </mxCell>
        <mxCell id="RsxdTm03hy1mxymEE_wY-19" value="input information()" style="text;html=1;align=center;verticalAlign=middle;resizable=0;points=[];autosize=1;strokeColor=none;fillColor=none;" parent="1" vertex="1">
          <mxGeometry x="405" y="198" width="120" height="30" as="geometry" />
        </mxCell>
        <mxCell id="RsxdTm03hy1mxymEE_wY-20" value="" style="endArrow=none;dashed=1;html=1;strokeWidth=1;rounded=0;entryX=0.5;entryY=1;entryDx=0;entryDy=0;" parent="1" source="RsxdTm03hy1mxymEE_wY-44" target="RsxdTm03hy1mxymEE_wY-21" edge="1">
          <mxGeometry width="50" height="50" relative="1" as="geometry">
            <mxPoint x="590" y="730" as="sourcePoint" />
            <mxPoint x="582.5" y="149" as="targetPoint" />
          </mxGeometry>
        </mxCell>
        <mxCell id="RsxdTm03hy1mxymEE_wY-21" value="" style="html=1;points=[];perimeter=orthogonalPerimeter;outlineConnect=0;targetShapes=umlLifeline;portConstraint=eastwest;newEdgeStyle={&quot;edgeStyle&quot;:&quot;elbowEdgeStyle&quot;,&quot;elbow&quot;:&quot;vertical&quot;,&quot;curved&quot;:0,&quot;rounded&quot;:0};" parent="1" vertex="1">
          <mxGeometry x="580" y="173" width="10" height="227" as="geometry" />
        </mxCell>
        <mxCell id="RsxdTm03hy1mxymEE_wY-22" value="if information valid" style="shape=umlFrame;whiteSpace=wrap;html=1;pointerEvents=0;width=130;height=20;" parent="1" vertex="1">
          <mxGeometry x="110" y="273" width="490" height="70" as="geometry" />
        </mxCell>
        <mxCell id="RsxdTm03hy1mxymEE_wY-23" value="" style="html=1;points=[];perimeter=orthogonalPerimeter;outlineConnect=0;targetShapes=umlLifeline;portConstraint=eastwest;newEdgeStyle={&quot;edgeStyle&quot;:&quot;elbowEdgeStyle&quot;,&quot;elbow&quot;:&quot;vertical&quot;,&quot;curved&quot;:0,&quot;rounded&quot;:0};" parent="1" vertex="1">
          <mxGeometry x="350" y="284" width="10" height="46" as="geometry" />
        </mxCell>
        <mxCell id="RsxdTm03hy1mxymEE_wY-24" value="" style="html=1;verticalAlign=bottom;endArrow=open;dashed=1;endSize=8;edgeStyle=elbowEdgeStyle;elbow=vertical;curved=0;rounded=0;" parent="1" edge="1">
          <mxGeometry y="-50" relative="1" as="geometry">
            <mxPoint x="580" y="313" as="sourcePoint" />
            <mxPoint x="360" y="312.5" as="targetPoint" />
            <mxPoint as="offset" />
          </mxGeometry>
        </mxCell>
        <mxCell id="RsxdTm03hy1mxymEE_wY-25" value="information valid" style="text;html=1;align=center;verticalAlign=middle;resizable=0;points=[];autosize=1;strokeColor=none;fillColor=none;" parent="1" vertex="1">
          <mxGeometry x="405" y="286" width="110" height="30" as="geometry" />
        </mxCell>
        <mxCell id="RsxdTm03hy1mxymEE_wY-26" value="" style="html=1;verticalAlign=bottom;endArrow=open;dashed=1;endSize=8;edgeStyle=elbowEdgeStyle;elbow=vertical;curved=0;rounded=0;" parent="1" edge="1">
          <mxGeometry y="-50" relative="1" as="geometry">
            <mxPoint x="350" y="316" as="sourcePoint" />
            <mxPoint x="125" y="315.5" as="targetPoint" />
            <mxPoint as="offset" />
            <Array as="points">
              <mxPoint x="145" y="316" />
            </Array>
          </mxGeometry>
        </mxCell>
        <mxCell id="RsxdTm03hy1mxymEE_wY-27" value="login success()" style="text;html=1;align=center;verticalAlign=middle;resizable=0;points=[];autosize=1;strokeColor=none;fillColor=none;" parent="1" vertex="1">
          <mxGeometry x="170" y="291" width="100" height="30" as="geometry" />
        </mxCell>
        <mxCell id="RsxdTm03hy1mxymEE_wY-28" value="else information unvalid" style="shape=umlFrame;whiteSpace=wrap;html=1;pointerEvents=0;width=150;height=20;" parent="1" vertex="1">
          <mxGeometry x="110" y="343" width="490" height="67" as="geometry" />
        </mxCell>
        <mxCell id="RsxdTm03hy1mxymEE_wY-29" value="" style="html=1;points=[];perimeter=orthogonalPerimeter;outlineConnect=0;targetShapes=umlLifeline;portConstraint=eastwest;newEdgeStyle={&quot;edgeStyle&quot;:&quot;elbowEdgeStyle&quot;,&quot;elbow&quot;:&quot;vertical&quot;,&quot;curved&quot;:0,&quot;rounded&quot;:0};" parent="1" vertex="1">
          <mxGeometry x="352" y="358" width="10" height="46" as="geometry" />
        </mxCell>
        <mxCell id="RsxdTm03hy1mxymEE_wY-30" value="" style="html=1;verticalAlign=bottom;endArrow=open;dashed=1;endSize=8;edgeStyle=elbowEdgeStyle;elbow=vertical;curved=0;rounded=0;" parent="1" edge="1">
          <mxGeometry y="-50" relative="1" as="geometry">
            <mxPoint x="581" y="381" as="sourcePoint" />
            <mxPoint x="361" y="380.5" as="targetPoint" />
            <mxPoint as="offset" />
          </mxGeometry>
        </mxCell>
        <mxCell id="RsxdTm03hy1mxymEE_wY-31" value="information unvalid" style="text;html=1;align=center;verticalAlign=middle;resizable=0;points=[];autosize=1;strokeColor=none;fillColor=none;" parent="1" vertex="1">
          <mxGeometry x="401" y="354" width="120" height="30" as="geometry" />
        </mxCell>
        <mxCell id="RsxdTm03hy1mxymEE_wY-32" value="" style="html=1;verticalAlign=bottom;endArrow=open;dashed=1;endSize=8;edgeStyle=elbowEdgeStyle;elbow=vertical;curved=0;rounded=0;" parent="1" edge="1">
          <mxGeometry y="-50" relative="1" as="geometry">
            <mxPoint x="350" y="382" as="sourcePoint" />
            <mxPoint x="125" y="381.5" as="targetPoint" />
            <mxPoint as="offset" />
            <Array as="points">
              <mxPoint x="145" y="382" />
            </Array>
          </mxGeometry>
        </mxCell>
        <mxCell id="RsxdTm03hy1mxymEE_wY-33" value="error message()" style="text;html=1;align=center;verticalAlign=middle;resizable=0;points=[];autosize=1;strokeColor=none;fillColor=none;" parent="1" vertex="1">
          <mxGeometry x="165" y="357" width="110" height="30" as="geometry" />
        </mxCell>
        <mxCell id="RsxdTm03hy1mxymEE_wY-34" value="" style="endArrow=none;dashed=1;html=1;strokeWidth=1;rounded=0;entryX=0.5;entryY=1;entryDx=0;entryDy=0;" parent="1" source="RsxdTm03hy1mxymEE_wY-53" target="RsxdTm03hy1mxymEE_wY-36" edge="1">
          <mxGeometry width="50" height="50" relative="1" as="geometry">
            <mxPoint x="356" y="707" as="sourcePoint" />
            <mxPoint x="355" y="237" as="targetPoint" />
          </mxGeometry>
        </mxCell>
        <mxCell id="RsxdTm03hy1mxymEE_wY-35" style="edgeStyle=elbowEdgeStyle;rounded=0;orthogonalLoop=1;jettySize=auto;html=1;elbow=vertical;curved=0;" parent="1" source="RsxdTm03hy1mxymEE_wY-36" target="RsxdTm03hy1mxymEE_wY-44" edge="1">
          <mxGeometry relative="1" as="geometry" />
        </mxCell>
        <mxCell id="RsxdTm03hy1mxymEE_wY-36" value="" style="html=1;points=[];perimeter=orthogonalPerimeter;outlineConnect=0;targetShapes=umlLifeline;portConstraint=eastwest;newEdgeStyle={&quot;edgeStyle&quot;:&quot;elbowEdgeStyle&quot;,&quot;elbow&quot;:&quot;vertical&quot;,&quot;curved&quot;:0,&quot;rounded&quot;:0};" parent="1" vertex="1">
          <mxGeometry x="351" y="415" width="10" height="120" as="geometry" />
        </mxCell>
        <mxCell id="RsxdTm03hy1mxymEE_wY-37" style="edgeStyle=elbowEdgeStyle;rounded=0;orthogonalLoop=1;jettySize=auto;html=1;elbow=vertical;curved=0;" parent="1" edge="1">
          <mxGeometry relative="1" as="geometry">
            <mxPoint x="125" y="442" as="sourcePoint" />
            <mxPoint x="349" y="442" as="targetPoint" />
          </mxGeometry>
        </mxCell>
        <mxCell id="RsxdTm03hy1mxymEE_wY-38" value="add category()" style="text;html=1;align=center;verticalAlign=middle;resizable=0;points=[];autosize=1;strokeColor=none;fillColor=none;" parent="1" vertex="1">
          <mxGeometry x="170" y="415" width="100" height="30" as="geometry" />
        </mxCell>
        <mxCell id="RsxdTm03hy1mxymEE_wY-39" value="" style="html=1;verticalAlign=bottom;endArrow=open;dashed=1;endSize=8;edgeStyle=elbowEdgeStyle;elbow=vertical;curved=0;rounded=0;" parent="1" edge="1">
          <mxGeometry y="-50" relative="1" as="geometry">
            <mxPoint x="349" y="467.5" as="sourcePoint" />
            <mxPoint x="124" y="467" as="targetPoint" />
            <mxPoint as="offset" />
            <Array as="points">
              <mxPoint x="144" y="467.5" />
            </Array>
          </mxGeometry>
        </mxCell>
        <mxCell id="RsxdTm03hy1mxymEE_wY-40" value="display add category form()" style="text;html=1;align=center;verticalAlign=middle;resizable=0;points=[];autosize=1;strokeColor=none;fillColor=none;" parent="1" vertex="1">
          <mxGeometry x="145" y="439" width="170" height="30" as="geometry" />
        </mxCell>
        <mxCell id="RsxdTm03hy1mxymEE_wY-41" style="edgeStyle=elbowEdgeStyle;rounded=0;orthogonalLoop=1;jettySize=auto;html=1;elbow=vertical;curved=0;" parent="1" edge="1">
          <mxGeometry relative="1" as="geometry">
            <mxPoint x="125" y="493" as="sourcePoint" />
            <mxPoint x="349" y="493" as="targetPoint" />
          </mxGeometry>
        </mxCell>
        <mxCell id="RsxdTm03hy1mxymEE_wY-42" value="input information" style="text;html=1;align=center;verticalAlign=middle;resizable=0;points=[];autosize=1;strokeColor=none;fillColor=none;" parent="1" vertex="1">
          <mxGeometry x="175" y="468" width="110" height="30" as="geometry" />
        </mxCell>
        <mxCell id="RsxdTm03hy1mxymEE_wY-43" value="" style="endArrow=none;dashed=1;html=1;strokeWidth=1;rounded=0;entryX=0.5;entryY=1;entryDx=0;entryDy=0;" parent="1" target="RsxdTm03hy1mxymEE_wY-44" edge="1">
          <mxGeometry width="50" height="50" relative="1" as="geometry">
            <mxPoint x="587" y="777" as="sourcePoint" />
            <mxPoint x="585" y="407" as="targetPoint" />
          </mxGeometry>
        </mxCell>
        <mxCell id="RsxdTm03hy1mxymEE_wY-44" value="" style="html=1;points=[];perimeter=orthogonalPerimeter;outlineConnect=0;targetShapes=umlLifeline;portConstraint=eastwest;newEdgeStyle={&quot;edgeStyle&quot;:&quot;elbowEdgeStyle&quot;,&quot;elbow&quot;:&quot;vertical&quot;,&quot;curved&quot;:0,&quot;rounded&quot;:0};" parent="1" vertex="1">
          <mxGeometry x="582" y="445" width="10" height="80" as="geometry" />
        </mxCell>
        <mxCell id="RsxdTm03hy1mxymEE_wY-45" value="input information()" style="text;html=1;align=center;verticalAlign=middle;resizable=0;points=[];autosize=1;strokeColor=none;fillColor=none;" parent="1" vertex="1">
          <mxGeometry x="394" y="462" width="120" height="30" as="geometry" />
        </mxCell>
        <mxCell id="RsxdTm03hy1mxymEE_wY-46" value="" style="html=1;verticalAlign=bottom;endArrow=open;dashed=1;endSize=8;edgeStyle=elbowEdgeStyle;elbow=vertical;curved=0;rounded=0;" parent="1" edge="1">
          <mxGeometry y="-50" relative="1" as="geometry">
            <mxPoint x="582" y="515.5" as="sourcePoint" />
            <mxPoint x="362" y="515" as="targetPoint" />
            <mxPoint as="offset" />
          </mxGeometry>
        </mxCell>
        <mxCell id="RsxdTm03hy1mxymEE_wY-47" value="information store success()" style="text;html=1;align=center;verticalAlign=middle;resizable=0;points=[];autosize=1;strokeColor=none;fillColor=none;" parent="1" vertex="1">
          <mxGeometry x="394" y="492" width="170" height="30" as="geometry" />
        </mxCell>
        <mxCell id="RsxdTm03hy1mxymEE_wY-48" value="" style="html=1;verticalAlign=bottom;endArrow=open;dashed=1;endSize=8;edgeStyle=elbowEdgeStyle;elbow=vertical;curved=0;rounded=0;" parent="1" edge="1">
          <mxGeometry y="-50" relative="1" as="geometry">
            <mxPoint x="350" y="522" as="sourcePoint" />
            <mxPoint x="125" y="521.5" as="targetPoint" />
            <mxPoint as="offset" />
            <Array as="points">
              <mxPoint x="145" y="522" />
            </Array>
          </mxGeometry>
        </mxCell>
        <mxCell id="RsxdTm03hy1mxymEE_wY-49" value="category add successfully()" style="text;html=1;align=center;verticalAlign=middle;resizable=0;points=[];autosize=1;strokeColor=none;fillColor=none;" parent="1" vertex="1">
          <mxGeometry x="156" y="497" width="170" height="30" as="geometry" />
        </mxCell>
        <mxCell id="RsxdTm03hy1mxymEE_wY-50" value="&lt;font style=&quot;font-size: 18px;&quot;&gt;Figure : Sequence Diagram for Category Add,Update,Delete&lt;/font&gt;" style="text;html=1;align=center;verticalAlign=middle;resizable=0;points=[];autosize=1;strokeColor=none;fillColor=none;" parent="1" vertex="1">
          <mxGeometry x="105" y="770" width="500" height="40" as="geometry" />
        </mxCell>
        <mxCell id="RsxdTm03hy1mxymEE_wY-51" value="" style="endArrow=none;dashed=1;html=1;strokeWidth=1;rounded=0;entryX=0.5;entryY=1;entryDx=0;entryDy=0;" parent="1" target="RsxdTm03hy1mxymEE_wY-53" edge="1">
          <mxGeometry width="50" height="50" relative="1" as="geometry">
            <mxPoint x="356" y="770" as="sourcePoint" />
            <mxPoint x="356" y="557" as="targetPoint" />
          </mxGeometry>
        </mxCell>
        <mxCell id="RsxdTm03hy1mxymEE_wY-52" style="edgeStyle=elbowEdgeStyle;rounded=0;orthogonalLoop=1;jettySize=auto;html=1;elbow=vertical;curved=0;" parent="1" edge="1">
          <mxGeometry relative="1" as="geometry">
            <mxPoint x="361" y="703" as="sourcePoint" />
            <mxPoint x="582" y="703" as="targetPoint" />
          </mxGeometry>
        </mxCell>
        <mxCell id="RsxdTm03hy1mxymEE_wY-53" value="" style="html=1;points=[];perimeter=orthogonalPerimeter;outlineConnect=0;targetShapes=umlLifeline;portConstraint=eastwest;newEdgeStyle={&quot;edgeStyle&quot;:&quot;elbowEdgeStyle&quot;,&quot;elbow&quot;:&quot;vertical&quot;,&quot;curved&quot;:0,&quot;rounded&quot;:0};" parent="1" vertex="1">
          <mxGeometry x="351" y="676" width="10" height="80" as="geometry" />
        </mxCell>
        <mxCell id="RsxdTm03hy1mxymEE_wY-54" style="edgeStyle=elbowEdgeStyle;rounded=0;orthogonalLoop=1;jettySize=auto;html=1;elbow=vertical;curved=0;" parent="1" edge="1">
          <mxGeometry relative="1" as="geometry">
            <mxPoint x="125" y="700" as="sourcePoint" />
            <mxPoint x="351" y="700" as="targetPoint" />
          </mxGeometry>
        </mxCell>
        <mxCell id="RsxdTm03hy1mxymEE_wY-55" value="delete category()" style="text;html=1;align=center;verticalAlign=middle;resizable=0;points=[];autosize=1;strokeColor=none;fillColor=none;" parent="1" vertex="1">
          <mxGeometry x="185" y="675" width="110" height="30" as="geometry" />
        </mxCell>
        <mxCell id="RsxdTm03hy1mxymEE_wY-56" value="" style="html=1;points=[];perimeter=orthogonalPerimeter;outlineConnect=0;targetShapes=umlLifeline;portConstraint=eastwest;newEdgeStyle={&quot;edgeStyle&quot;:&quot;elbowEdgeStyle&quot;,&quot;elbow&quot;:&quot;vertical&quot;,&quot;curved&quot;:0,&quot;rounded&quot;:0};" parent="1" vertex="1">
          <mxGeometry x="582" y="677" width="10" height="80" as="geometry" />
        </mxCell>
        <mxCell id="RsxdTm03hy1mxymEE_wY-57" value="destory category()" style="text;html=1;align=center;verticalAlign=middle;resizable=0;points=[];autosize=1;strokeColor=none;fillColor=none;" parent="1" vertex="1">
          <mxGeometry x="400" y="676" width="120" height="30" as="geometry" />
        </mxCell>
        <mxCell id="RsxdTm03hy1mxymEE_wY-58" value="" style="html=1;verticalAlign=bottom;endArrow=open;dashed=1;endSize=8;edgeStyle=elbowEdgeStyle;elbow=vertical;curved=0;rounded=0;" parent="1" edge="1">
          <mxGeometry y="-50" relative="1" as="geometry">
            <mxPoint x="582" y="737.5" as="sourcePoint" />
            <mxPoint x="362" y="737" as="targetPoint" />
            <mxPoint as="offset" />
          </mxGeometry>
        </mxCell>
        <mxCell id="RsxdTm03hy1mxymEE_wY-59" value="destroy success()" style="text;html=1;align=center;verticalAlign=middle;resizable=0;points=[];autosize=1;strokeColor=none;fillColor=none;" parent="1" vertex="1">
          <mxGeometry x="405" y="715" width="120" height="30" as="geometry" />
        </mxCell>
        <mxCell id="RsxdTm03hy1mxymEE_wY-60" value="" style="html=1;verticalAlign=bottom;endArrow=open;dashed=1;endSize=8;edgeStyle=elbowEdgeStyle;elbow=vertical;curved=0;rounded=0;" parent="1" edge="1">
          <mxGeometry y="-50" relative="1" as="geometry">
            <mxPoint x="347" y="750" as="sourcePoint" />
            <mxPoint x="127" y="749.5" as="targetPoint" />
            <mxPoint as="offset" />
          </mxGeometry>
        </mxCell>
        <mxCell id="RsxdTm03hy1mxymEE_wY-61" value="category delete successfully()" style="text;html=1;align=center;verticalAlign=middle;resizable=0;points=[];autosize=1;strokeColor=none;fillColor=none;" parent="1" vertex="1">
          <mxGeometry x="150" y="725" width="180" height="30" as="geometry" />
        </mxCell>
        <mxCell id="RsxdTm03hy1mxymEE_wY-62" value="" style="html=1;points=[];perimeter=orthogonalPerimeter;outlineConnect=0;targetShapes=umlLifeline;portConstraint=eastwest;newEdgeStyle={&quot;edgeStyle&quot;:&quot;elbowEdgeStyle&quot;,&quot;elbow&quot;:&quot;vertical&quot;,&quot;curved&quot;:0,&quot;rounded&quot;:0};" parent="1" vertex="1">
          <mxGeometry x="115" y="549" width="10" height="107" as="geometry" />
        </mxCell>
        <mxCell id="RsxdTm03hy1mxymEE_wY-63" style="edgeStyle=elbowEdgeStyle;rounded=0;orthogonalLoop=1;jettySize=auto;html=1;elbow=vertical;curved=0;" parent="1" edge="1">
          <mxGeometry relative="1" as="geometry">
            <mxPoint x="361" y="617" as="sourcePoint" />
            <mxPoint x="582" y="617" as="targetPoint" />
          </mxGeometry>
        </mxCell>
        <mxCell id="RsxdTm03hy1mxymEE_wY-64" value="" style="html=1;points=[];perimeter=orthogonalPerimeter;outlineConnect=0;targetShapes=umlLifeline;portConstraint=eastwest;newEdgeStyle={&quot;edgeStyle&quot;:&quot;elbowEdgeStyle&quot;,&quot;elbow&quot;:&quot;vertical&quot;,&quot;curved&quot;:0,&quot;rounded&quot;:0};" parent="1" vertex="1">
          <mxGeometry x="351" y="548" width="10" height="108" as="geometry" />
        </mxCell>
        <mxCell id="RsxdTm03hy1mxymEE_wY-65" style="edgeStyle=elbowEdgeStyle;rounded=0;orthogonalLoop=1;jettySize=auto;html=1;elbow=vertical;curved=0;" parent="1" edge="1">
          <mxGeometry relative="1" as="geometry">
            <mxPoint x="125" y="557" as="sourcePoint" />
            <mxPoint x="351" y="557" as="targetPoint" />
          </mxGeometry>
        </mxCell>
        <mxCell id="RsxdTm03hy1mxymEE_wY-66" value="updatecategory()" style="text;html=1;align=center;verticalAlign=middle;resizable=0;points=[];autosize=1;strokeColor=none;fillColor=none;" parent="1" vertex="1">
          <mxGeometry x="186" y="530" width="110" height="30" as="geometry" />
        </mxCell>
        <mxCell id="RsxdTm03hy1mxymEE_wY-67" value="" style="html=1;points=[];perimeter=orthogonalPerimeter;outlineConnect=0;targetShapes=umlLifeline;portConstraint=eastwest;newEdgeStyle={&quot;edgeStyle&quot;:&quot;elbowEdgeStyle&quot;,&quot;elbow&quot;:&quot;vertical&quot;,&quot;curved&quot;:0,&quot;rounded&quot;:0};" parent="1" vertex="1">
          <mxGeometry x="582" y="549" width="10" height="107" as="geometry" />
        </mxCell>
        <mxCell id="RsxdTm03hy1mxymEE_wY-68" value="update category information()" style="text;html=1;align=center;verticalAlign=middle;resizable=0;points=[];autosize=1;strokeColor=none;fillColor=none;" parent="1" vertex="1">
          <mxGeometry x="370" y="590" width="180" height="30" as="geometry" />
        </mxCell>
        <mxCell id="RsxdTm03hy1mxymEE_wY-69" value="" style="html=1;verticalAlign=bottom;endArrow=open;dashed=1;endSize=8;edgeStyle=elbowEdgeStyle;elbow=vertical;curved=0;rounded=0;" parent="1" edge="1">
          <mxGeometry y="-50" relative="1" as="geometry">
            <mxPoint x="582" y="645.5" as="sourcePoint" />
            <mxPoint x="362" y="645" as="targetPoint" />
            <mxPoint as="offset" />
          </mxGeometry>
        </mxCell>
        <mxCell id="RsxdTm03hy1mxymEE_wY-70" value="update success()" style="text;html=1;align=center;verticalAlign=middle;resizable=0;points=[];autosize=1;strokeColor=none;fillColor=none;" parent="1" vertex="1">
          <mxGeometry x="410" y="623" width="110" height="30" as="geometry" />
        </mxCell>
        <mxCell id="RsxdTm03hy1mxymEE_wY-71" value="" style="html=1;verticalAlign=bottom;endArrow=open;dashed=1;endSize=8;edgeStyle=elbowEdgeStyle;elbow=vertical;curved=0;rounded=0;" parent="1" edge="1">
          <mxGeometry y="-50" relative="1" as="geometry">
            <mxPoint x="347" y="645" as="sourcePoint" />
            <mxPoint x="127" y="644.5" as="targetPoint" />
            <mxPoint as="offset" />
          </mxGeometry>
        </mxCell>
        <mxCell id="RsxdTm03hy1mxymEE_wY-72" value="category update successfully()" style="text;html=1;align=center;verticalAlign=middle;resizable=0;points=[];autosize=1;strokeColor=none;fillColor=none;" parent="1" vertex="1">
          <mxGeometry x="145" y="620" width="190" height="30" as="geometry" />
        </mxCell>
        <mxCell id="RsxdTm03hy1mxymEE_wY-73" value="" style="html=1;verticalAlign=bottom;endArrow=open;dashed=1;endSize=8;edgeStyle=elbowEdgeStyle;elbow=vertical;curved=0;rounded=0;" parent="1" edge="1">
          <mxGeometry y="-50" relative="1" as="geometry">
            <mxPoint x="350" y="589.5" as="sourcePoint" />
            <mxPoint x="125" y="589" as="targetPoint" />
            <mxPoint as="offset" />
            <Array as="points">
              <mxPoint x="145" y="589.5" />
            </Array>
          </mxGeometry>
        </mxCell>
        <mxCell id="RsxdTm03hy1mxymEE_wY-74" value="display update category form()" style="text;html=1;align=center;verticalAlign=middle;resizable=0;points=[];autosize=1;strokeColor=none;fillColor=none;" parent="1" vertex="1">
          <mxGeometry x="155" y="563" width="190" height="30" as="geometry" />
        </mxCell>
        <mxCell id="RsxdTm03hy1mxymEE_wY-75" style="edgeStyle=elbowEdgeStyle;rounded=0;orthogonalLoop=1;jettySize=auto;html=1;elbow=vertical;curved=0;" parent="1" edge="1">
          <mxGeometry relative="1" as="geometry">
            <mxPoint x="128" y="618" as="sourcePoint" />
            <mxPoint x="352" y="618" as="targetPoint" />
          </mxGeometry>
        </mxCell>
        <mxCell id="RsxdTm03hy1mxymEE_wY-76" value="input update information()" style="text;html=1;align=center;verticalAlign=middle;resizable=0;points=[];autosize=1;strokeColor=none;fillColor=none;" parent="1" vertex="1">
          <mxGeometry x="153" y="593" width="160" height="30" as="geometry" />
        </mxCell>
        <mxCell id="IGiEtVDw1kNg68lAXbOK-1" value="" style="swimlane;startSize=0;" parent="1" vertex="1">
          <mxGeometry x="55" y="55" width="615" height="775" as="geometry" />
        </mxCell>
      </root>
    </mxGraphModel>
  </diagram>
</mxfile>
